<?xml version="1.0" standalone="no"?>
<!DOCTYPE svg PUBLIC "-//W3C//DTD SVG 20010904//EN"
 "http://www.w3.org/TR/2001/REC-SVG-20010904/DTD/svg10.dtd">
<svg version="1.0" xmlns="http://www.w3.org/2000/svg"
 width="1630.000000pt" height="1630.000000pt" viewBox="0 0 1630.000000 1630.000000"
 preserveAspectRatio="xMidYMid meet">
<metadata>
Created by potrace 1.14, written by Peter Selinger 2001-2017
</metadata>
<g transform="translate(0.000000,1630.000000) scale(0.100000,-0.100000)"
fill="#000000" stroke="none">
<path d="M6325 14729 c-1047 -40 -2078 -338 -3002 -865 -903 -516 -1705 -1281
-2270 -2164 -504 -789 -837 -1680 -968 -2590 -103 -722 -89 -1463 41 -2160
291 -1561 1138 -2963 2389 -3955 902 -715 1991 -1186 3115 -1349 441 -64 348
-61 2240 -61 2071 0 2263 6 2790 81 1382 197 2687 853 3689 1855 916 916 1536
2068 1796 3337 40 197 76 440 102 687 22 214 26 985 5 1185 -45 436 -96 735
-188 1090 -441 1698 -1556 3158 -3089 4042 -711 410 -1512 688 -2315 802 -411
59 -737 76 -1482 76 l-508 0 0 -5960 0 -5960 -1222 0 c-1269 0 -1370 3 -1670
45 -1354 187 -2593 903 -3434 1985 -538 692 -882 1463 -1044 2335 -93 504
-106 1141 -36 1670 88 656 318 1345 638 1905 543 950 1341 1701 2303 2166 736
356 1468 524 2283 524 l262 0 0 639 0 638 -67 6 c-38 4 -88 6 -113 5 -25 0
-135 -5 -245 -9z m3800 -1234 c287 -25 514 -59 760 -117 1321 -307 2465 -1091
3227 -2213 472 -694 762 -1458 878 -2310 55 -407 53 -979 -5 -1415 -112 -847
-443 -1681 -944 -2380 -865 -1208 -2163 -1992 -3631 -2195 -157 -22 -436 -45
-542 -45 l-88 0 0 5345 0 5345 88 0 c48 0 164 -7 257 -15z"/>
</g>
</svg>
